<?xml version="1.0" encoding="utf-8"?>
<!-- Generator: Adobe Illustrator 22.0.1, SVG Export Plug-In . SVG Version: 6.00 Build 0)  -->
<svg version="1.1" id="Layer_1" xmlns="http://www.w3.org/2000/svg" xmlns:xlink="http://www.w3.org/1999/xlink" x="0px" y="0px"
	 viewBox="0 0 200 200" style="enable-background:new 0 0 200 200;" xml:space="preserve">
<style type="text/css">
	.st0{fill:#646464;}
</style>
<path class="st0" d="M174,99.6c0-0.2,0-0.2,0-0.4l0,0c0-0.2,0-0.2-0.2-0.4c0-0.2,0-0.2-0.2-0.4l0,0c0-0.2-0.2-0.2-0.2-0.4
	c0-0.2-0.2-0.2-0.2-0.4l0,0l0,0c0-0.2-0.2-0.2-0.2-0.4l-0.2-0.2l0,0l-0.2-0.2c-0.2,0-0.2-0.2-0.4-0.2l0,0l0,0l0,0l-25.4-17
	c-1.8-1.2-4.4-0.8-5.6,1.2c-1.2,1.8-0.8,4.4,1.2,5.6l14.4,9.6H70c-2.2,0-4,1.8-4,4s1.8,4,4,4h86.8l-14.4,9.6
	c-1.8,1.2-2.4,3.8-1.2,5.6c0.8,1.2,2,1.8,3.4,1.8c0.8,0,1.6-0.2,2.2-0.6l25.4-17l0,0c0.2,0,0.2-0.2,0.2-0.2l0.2-0.2c0,0,0,0,0.2,0
	l0.2-0.2c0-0.2,0.2-0.2,0.2-0.4l0,0l0,0c0-0.2,0.2-0.2,0.2-0.4c0-0.2,0.2-0.2,0.2-0.4l0,0c0-0.2,0-0.2,0.2-0.4c0-0.2,0-0.2,0.2-0.4
	l0,0c0-0.2,0-0.2,0-0.4c0-0.2,0-0.2,0-0.4l0,0l0,0C174,99.8,174,99.8,174,99.6z"/>
</svg>
