<?xml version="1.0" encoding="utf-8"?>
<!-- Generator: Adobe Illustrator 22.0.1, SVG Export Plug-In . SVG Version: 6.00 Build 0)  -->
<svg version="1.1" id="Layer_1" xmlns="http://www.w3.org/2000/svg" xmlns:xlink="http://www.w3.org/1999/xlink" x="0px" y="0px"
	 viewBox="0 0 200 200" style="enable-background:new 0 0 200 200;" xml:space="preserve">
<style type="text/css">
	.st0{fill:#B91332;}
</style>
<path class="st0" d="M198.7,178.5l-62.6-62.6c8.1-12.1,12.5-26.4,12.5-41.3c0-19.8-7.7-38.5-21.8-52.5c-14-14-32.7-21.8-52.5-21.8
	S35.8,8.1,21.8,22.1C7.7,36.1,0,54.8,0,74.6s7.7,38.5,21.8,52.5s32.7,21.8,52.5,21.8c15.1,0,29.5-4.5,41.7-12.8l62.5,62.5
	c2.1,2.1,6,1.7,8.7-1l10.5-10.5C200.3,184.5,200.8,180.6,198.7,178.5z M74.3,128.8c-29.9,0-54.2-24.3-54.2-54.2s24.3-54.2,54.2-54.2
	s54.2,24.3,54.2,54.2S104.2,128.8,74.3,128.8z"/>
</svg>
