<?xml version="1.0" encoding="utf-8"?>
<!-- Generator: Adobe Illustrator 22.0.1, SVG Export Plug-In . SVG Version: 6.00 Build 0)  -->
<svg version="1.1" id="Layer_1" xmlns="http://www.w3.org/2000/svg" xmlns:xlink="http://www.w3.org/1999/xlink" x="0px" y="0px"
	 viewBox="0 0 200 200" style="enable-background:new 0 0 200 200;" xml:space="preserve">
<style type="text/css">
	.st0{fill:#B91432;}
</style>
<path class="st0" d="M133,130c-5.2,0-10.1,1.6-14.1,4.4l-32.5-25.5c1-2.8,1.6-5.7,1.6-8.8c0-3.2-0.6-6.3-1.7-9.1l32-25.7
	c4.1,3,9.2,4.8,14.7,4.8c13.8,0,25-11.2,25-25s-11.2-25-25-25c-13.8,0-25,11.2-25,25c0,2.9,0.5,5.6,1.3,8.1L76.9,79.2
	C72.9,76.6,68.1,75,63,75c-13.8,0-25,11.2-25,25s11.2,25,25,25c5.2,0,10.1-1.6,14.1-4.4l32.5,25.5c-1,2.8-1.6,5.7-1.6,8.8
	c0,13.8,11.2,25,25,25c13.8,0,25-11.2,25-25S146.8,130,133,130z"/>
</svg>
